<?xml version="1.0" encoding="utf-8"?>
<!-- Generator: Adobe Illustrator 27.7.0, SVG Export Plug-In . SVG Version: 6.00 Build 0)  -->
<svg version="1.1" id="Capa_1" xmlns="http://www.w3.org/2000/svg" xmlns:xlink="http://www.w3.org/1999/xlink" x="0px" y="0px"
	 viewBox="0 0 2122 2122" style="enable-background:new 0 0 2122 2122;" xml:space="preserve">
<style type="text/css">
	.st0{clip-path:url(#SVGID_00000114038627950572262530000017693761647680471740_);fill:#E73B1F;}
	.st1{clip-path:url(#SVGID_00000114038627950572262530000017693761647680471740_);fill:#1D1837;}
	.st2{clip-path:url(#SVGID_00000114038627950572262530000017693761647680471740_);fill:#D7E4EB;}
	.st3{clip-path:url(#SVGID_00000114038627950572262530000017693761647680471740_);fill:#E28C60;}
	.st4{clip-path:url(#SVGID_00000114038627950572262530000017693761647680471740_);fill:#CD754D;}
	.st5{clip-path:url(#SVGID_00000114038627950572262530000017693761647680471740_);fill:#F4A97F;}
	.st6{clip-path:url(#SVGID_00000114038627950572262530000017693761647680471740_);fill:#E97E58;}
	.st7{clip-path:url(#SVGID_00000114038627950572262530000017693761647680471740_);fill:#E5EDF2;}
	.st8{clip-path:url(#SVGID_00000114038627950572262530000017693761647680471740_);fill:#CC6B3F;}
	.st9{clip-path:url(#SVGID_00000114038627950572262530000017693761647680471740_);fill:#FEF8F9;}
	.st10{clip-path:url(#SVGID_00000114038627950572262530000017693761647680471740_);fill:#A5B6BF;}
</style>
<g>
	<defs>
		<path id="SVGID_1_" d="M212.13,1060.66c0,468.62,379.89,848.53,848.53,848.53c468.62,0,848.51-379.91,848.51-848.53
			c0-468.62-379.89-848.51-848.51-848.51C592.02,212.15,212.13,592.04,212.13,1060.66"/>
	</defs>
	<clipPath id="SVGID_00000114790955460098363810000001880096767703152060_">
		<use xlink:href="#SVGID_1_"  style="overflow:visible;"/>
	</clipPath>
	
		<ellipse transform="matrix(0.7071 -0.7071 0.7071 0.7071 -439.3408 1060.6599)" style="clip-path:url(#SVGID_00000114790955460098363810000001880096767703152060_);fill:#E73B1F;" cx="1060.66" cy="1060.66" rx="848.52" ry="848.52"/>
	<path style="clip-path:url(#SVGID_00000114790955460098363810000001880096767703152060_);fill:#1D1837;" d="M1378.9,874.97
		c0,0,32.02-86.38,15.06-129.69c-16.94-43.32-9.15-96.08-5.64-139.32c5.65-69.68-42.08-138.06-93.13-156.89
		c-46.12-17.02-174.31-28.04-208.18-35.23c-68.56-14.53-213.04-24.12-269.31,58.39c-45.93,67.35-41.44,89.55-69.68,139.35
		c-47.08,83.01-21.18,183.69,5.65,248.92c26.83,65.25,47.08,25.99,47.08,25.99L1378.9,874.97z"/>
	<path style="clip-path:url(#SVGID_00000114790955460098363810000001880096767703152060_);fill:#D7E4EB;" d="M1640.94,1591.75
		c-154.32-24.65-358.58-91.32-389.24-152.53c-28.11-56.16-29.07-125.74-26.46-237.29l-155.18,49.28l-155.18-49.28
		c2.61,111.56,1.66,181.14-26.46,237.29c-30.64,61.21-234.92,127.88-389.24,152.53c-194.63,31.09-169.21,341.11-169.21,341.11h740.1
		h740.09C1810.16,1932.86,1835.58,1622.84,1640.94,1591.75z"/>
	<path style="clip-path:url(#SVGID_00000114790955460098363810000001880096767703152060_);fill:#E28C60;" d="M1311.39,1489.77
		c-29.85-16.61-51.29-33.78-59.69-50.54c-22.97-45.88-27.81-100.74-27.39-180.13c-18.71-15.05-39.71-27.59-62.43-37.04l-91.82,29.16
		l-102.51-32.56c-18.44,6.92-35.81,15.83-51.87,26.47c1.04,87-2.97,145.58-27.27,194.1c-9.95,19.86-38.16,40.28-77.02,59.66
		c25.12,109.66,127.07,191.73,249.03,191.73C1185.77,1690.62,1289.98,1603.97,1311.39,1489.77z"/>
	<path style="clip-path:url(#SVGID_00000114790955460098363810000001880096767703152060_);fill:#CD754D;" d="M1244.04,1421.87
		c-20.59-53.21-21.14-119.58-18.8-219.93l-155.18,49.28l-155.18-49.28c1.54,65.7,1.83,116.82-3.93,159.24
		C984.35,1421.01,1148.34,1532.05,1244.04,1421.87z"/>
	<path style="clip-path:url(#SVGID_00000114790955460098363810000001880096767703152060_);fill:#E28C60;" d="M796.13,875.35
		c0,0-15.75-49-46.3-32.58c-30.54,16.41-14.31,206.58,30.13,228.58c44.44,22,55.3-37.41,55.3-37.41L796.13,875.35z"/>
	<path style="clip-path:url(#SVGID_00000114790955460098363810000001880096767703152060_);fill:#E28C60;" d="M1349.54,875.35
		c0,0,15.74-49,46.29-32.58c30.54,16.41,14.31,206.58-30.13,228.58c-44.45,22-55.3-37.41-55.3-37.41L1349.54,875.35z"/>
	<path style="clip-path:url(#SVGID_00000114790955460098363810000001880096767703152060_);fill:#F4A97F;" d="M1361.39,865.32
		c-3.47-242.19-111.49-352.46-291.33-353.09c-179.85,0.63-287.86,110.9-291.33,353.09c-1.23,85.45,16.1,195.3,34.27,260.54
		c24.98,89.69,145.13,162.38,209.22,194.74c15.74,7.95,28.76,7.79,47.84,7.79c19.07,0,32.1,0.16,47.84-7.79
		c64.08-32.36,184.23-105.05,209.21-194.74C1345.29,1060.61,1362.62,950.77,1361.39,865.32z"/>
	<path style="clip-path:url(#SVGID_00000114790955460098363810000001880096767703152060_);fill:#E97E58;" d="M1073.59,1136.27
		h-102.7c20.94,80.81,99.32,72.74,99.32,72.74s75.67,8.07,106.08-72.74H1073.59z"/>
	<path style="clip-path:url(#SVGID_00000114790955460098363810000001880096767703152060_);fill:#E5EDF2;" d="M1073.59,1130.49
		l-96.24,7.76c0,0,20.79,35.44,96.24,35.44c74.55,0,96.24-35.44,96.24-35.44L1073.59,1130.49z"/>
	<path style="clip-path:url(#SVGID_00000114790955460098363810000001880096767703152060_);fill:#CC6B3F;" d="M1077.2,1069.73
		c0,0,22.19-34.02,44.06-12.26c0,0,0.3,9.75-19.53,8C1101.73,1065.48,1093.09,1061.64,1077.2,1069.73z"/>
	<path style="clip-path:url(#SVGID_00000114790955460098363810000001880096767703152060_);fill:#CC6B3F;" d="M1066.99,1069.44
		c0,0-23.99-35.35-44.76-14.81c0,0,0.2,9.74,19.98,9.13C1042.2,1063.76,1050.66,1060.42,1066.99,1069.44z"/>
	<path style="clip-path:url(#SVGID_00000114790955460098363810000001880096767703152060_);fill:#E28C60;" d="M1311.39,1489.77
		c-29.85-16.61-51.29-33.78-59.69-50.54c-22.97-45.88-27.81-100.74-27.39-180.13c-18.71-15.05-39.71-27.59-62.43-37.04l-91.82,29.16
		l-102.51-32.56c-18.44,6.92-35.81,15.83-51.87,26.47c1.04,87-2.97,145.58-27.27,194.1c-9.95,19.86-38.16,40.28-77.02,59.66
		c25.12,109.66,127.07,191.73,249.03,191.73C1185.77,1690.62,1289.98,1603.97,1311.39,1489.77z"/>
	<path style="clip-path:url(#SVGID_00000114790955460098363810000001880096767703152060_);fill:#CD754D;" d="M1244.04,1421.87
		c-20.59-53.21-21.14-119.58-18.8-219.93l-155.18,49.28l-155.18-49.28c1.54,65.7,1.83,116.82-3.93,159.24
		C984.35,1421.01,1148.34,1532.05,1244.04,1421.87z"/>
	<path style="clip-path:url(#SVGID_00000114790955460098363810000001880096767703152060_);fill:#E28C60;" d="M796.13,875.35
		c0,0-15.75-49-46.3-32.58c-30.54,16.41-14.31,206.58,30.13,228.58c44.44,22,55.3-37.41,55.3-37.41L796.13,875.35z"/>
	<path style="clip-path:url(#SVGID_00000114790955460098363810000001880096767703152060_);fill:#E28C60;" d="M1349.54,875.35
		c0,0,15.74-49,46.29-32.58c30.54,16.41,14.31,206.58-30.13,228.58c-44.45,22-55.3-37.41-55.3-37.41L1349.54,875.35z"/>
	<path style="clip-path:url(#SVGID_00000114790955460098363810000001880096767703152060_);fill:#F4A97F;" d="M1361.39,865.32
		c-3.47-242.19-111.49-352.46-291.33-353.09c-179.85,0.63-287.86,110.9-291.33,353.09c-1.23,85.45,16.1,195.3,34.27,260.54
		c24.98,89.69,145.13,162.38,209.22,194.74c15.74,7.95,28.76,7.79,47.84,7.79c19.07,0,32.1,0.16,47.84-7.79
		c64.08-32.36,184.23-105.05,209.21-194.74C1345.29,1060.61,1362.62,950.77,1361.39,865.32z"/>
	<path style="clip-path:url(#SVGID_00000114790955460098363810000001880096767703152060_);fill:#E97E58;" d="M1073.59,1136.27
		h-102.7c20.94,80.81,99.32,72.74,99.32,72.74s75.67,8.07,106.08-72.74H1073.59z"/>
	<path style="clip-path:url(#SVGID_00000114790955460098363810000001880096767703152060_);fill:#E5EDF2;" d="M1073.59,1130.49
		l-96.24,7.76c0,0,20.79,35.44,96.24,35.44c74.55,0,96.24-35.44,96.24-35.44L1073.59,1130.49z"/>
	<path style="clip-path:url(#SVGID_00000114790955460098363810000001880096767703152060_);fill:#CC6B3F;" d="M1077.2,1069.73
		c0,0,22.19-34.02,44.06-12.26c0,0,0.3,9.75-19.53,8C1101.73,1065.48,1093.09,1061.64,1077.2,1069.73z"/>
	<path style="clip-path:url(#SVGID_00000114790955460098363810000001880096767703152060_);fill:#CC6B3F;" d="M1066.99,1069.44
		c0,0-23.99-35.35-44.76-14.81c0,0,0.2,9.74,19.98,9.13C1042.2,1063.76,1050.66,1060.42,1066.99,1069.44z"/>
	<path style="clip-path:url(#SVGID_00000114790955460098363810000001880096767703152060_);fill:#CC6B3F;" d="M1107.51,1116.71
		c-11.49-4.24-29.86,2.62-33.92,5.44c-4.06-2.82-22.43-9.68-33.92-5.44c-11.48,4.23-68.78,19.57-68.78,19.57
		c31.75,11.3,102.7,9.17,102.7,9.17s70.94,2.12,102.7-9.17C1176.3,1136.27,1119,1120.93,1107.51,1116.71z"/>
	<path style="clip-path:url(#SVGID_00000114790955460098363810000001880096767703152060_);fill:#FEF8F9;" d="M873.53,898.29
		L873.53,898.29c8.35-13.56,31.22-23.31,58.23-23.31c27.01,0,49.88,9.75,58.21,23.31h0.01l-0.01,0.01h0.01h-0.01
		c-8.33,13.56-31.2,23.31-58.21,23.31C904.75,921.59,881.88,911.85,873.53,898.29z"/>
	<path style="clip-path:url(#SVGID_00000114790955460098363810000001880096767703152060_);fill:#1D1837;" d="M989.96,896.43h0.01
		H989.96z"/>
	<path style="clip-path:url(#SVGID_00000114790955460098363810000001880096767703152060_);fill:#1D1837;" d="M873.53,896.43
		c13.21-12.26,31.22-21.45,58.23-21.45c20.28,0,39.73,7.49,58.21,21.44c-26.64-41.92-69.01-42.62-106.44-24.97
		c0,0-5.13,1.17-25.74,20.55L873.53,896.43z"/>
	<path style="clip-path:url(#SVGID_00000114790955460098363810000001880096767703152060_);fill:#E28C60;" d="M867.48,872.53
		c0,0,0.4-0.33,1.21-0.95c5.67-4.3,30.67-21.67,62.84-21.65c17.62,0.01,37.4,5.15,57.58,20.52c0.62,0.47,1.51,0.35,1.98-0.27
		c0.47-0.62,0.35-1.51-0.27-1.98c-20.64-15.74-41.12-21.11-59.29-21.1c-37.95,0.03-65.73,23.17-65.86,23.25
		c-0.6,0.5-0.68,1.39-0.18,1.99C865.99,872.95,866.88,873.03,867.48,872.53L867.48,872.53z"/>
	<path style="clip-path:url(#SVGID_00000114790955460098363810000001880096767703152060_);fill:#1D1837;" d="M905.15,878.38
		c-3.89,4.98-6.23,11.23-6.23,18.04c0,9.27,4.31,17.53,11.03,22.91c6.78,1.45,14.11,2.26,21.8,2.26c4.41,0,8.7-0.29,12.85-0.77
		c7.85-5.27,13.02-14.23,13.02-24.39c0-7.7-2.99-14.69-7.85-19.92c-5.7-0.99-11.74-1.53-18.02-1.53
		C922.21,874.97,913.2,876.21,905.15,878.38z"/>
	<path style="clip-path:url(#SVGID_00000114790955460098363810000001880096767703152060_);fill:#1D1837;" d="M1129.38,812.47
		c0,0,2.63,27.62,26.84,20.96c33.9-9.3,101.11-18.35,147.59,0C1309.59,835.72,1256.58,744.31,1129.38,812.47z"/>
	<path style="clip-path:url(#SVGID_00000114790955460098363810000001880096767703152060_);fill:#1D1837;" d="M1010.46,812.47
		c0,0-2.63,27.62-26.83,20.96c-33.9-9.3-101.12-18.35-147.6,0C830.26,835.72,883.27,744.31,1010.46,812.47z"/>
	<path style="clip-path:url(#SVGID_00000114790955460098363810000001880096767703152060_);fill:#FEF8F9;" d="M1266.59,898.29
		L1266.59,898.29c-8.33-13.56-31.21-23.31-58.21-23.31c-27,0-49.88,9.75-58.22,23.31v0.01c8.34,13.56,31.22,23.31,58.22,23.31
		C1235.37,921.59,1258.25,911.85,1266.59,898.29z"/>
	<path style="clip-path:url(#SVGID_00000114790955460098363810000001880096767703152060_);fill:#1D1837;" d="M1150.15,896.43"/>
	<path style="clip-path:url(#SVGID_00000114790955460098363810000001880096767703152060_);fill:#1D1837;" d="M1266.59,896.43
		c-13.2-12.26-31.21-21.45-58.21-21.45c-20.27,0-39.73,7.49-58.22,21.44c26.64-41.92,69.02-42.62,106.44-24.97
		c0,0,5.13,1.17,25.76,20.55L1266.59,896.43z"/>
	<path style="clip-path:url(#SVGID_00000114790955460098363810000001880096767703152060_);fill:#E28C60;" d="M1274.45,870.36
		c-0.12-0.08-27.9-23.22-65.86-23.25c-18.17-0.01-38.65,5.36-59.3,21.1c-0.62,0.47-0.74,1.36-0.27,1.98s1.36,0.74,1.98,0.27
		c20.18-15.38,39.97-20.52,57.59-20.53c18.39,0,34.43,5.65,45.86,11.32c5.72,2.83,10.28,5.66,13.41,7.78
		c1.56,1.06,2.77,1.94,3.58,2.55c0.81,0.61,1.21,0.95,1.21,0.95c0.6,0.5,1.49,0.42,1.99-0.18
		C1275.13,871.75,1275.05,870.86,1274.45,870.36L1274.45,870.36z"/>
	<path style="clip-path:url(#SVGID_00000114790955460098363810000001880096767703152060_);fill:#1D1837;" d="M1234.97,878.38
		c3.89,4.98,6.23,11.23,6.23,18.04c0,9.27-4.31,17.53-11.03,22.91c-6.78,1.45-14.1,2.26-21.79,2.26c-4.42,0-8.7-0.29-12.85-0.77
		c-7.85-5.27-13.01-14.23-13.01-24.39c0-7.7,2.98-14.69,7.84-19.92c5.7-0.99,11.75-1.53,18.03-1.53
		C1217.91,874.97,1226.92,876.21,1234.97,878.38z"/>
	<path style="clip-path:url(#SVGID_00000114790955460098363810000001880096767703152060_);fill:#1D1837;" d="M1077.2,493
		c-210.62,0-301.19,104.23-304.66,346.41c-0.15,9.99,6.17,46.24,6.51,56.78c30.26-17.65,32.6-75.74,37.23-141.84
		c7.28-104.14,106.76-159.73,154.61-147.09c42.43,11.22,84.13,25.05,179.26-3.2c114.61-34.04,143.07,83.77,154.08,154.4
		c10.47,67.09,52.68,131.19,56.86,137.42c0.33-10.44,9.03-46.58,8.88-56.47C1366.5,597.23,1282.36,493,1077.2,493z"/>
	<path style="clip-path:url(#SVGID_00000114790955460098363810000001880096767703152060_);fill:#A5B6BF;" d="M1354.25,1510.84
		c-2.66-1.17-5.29-2.35-7.88-3.53c-29.69,129.91-146.19,227.14-284.97,227.14c-136.32,0-251.14-93.8-283.32-220.25
		c-2.6,1.1-5.24,2.21-7.9,3.3c33.52,129.5,151.37,225.42,291.22,225.42C1203.62,1742.92,1323.09,1643.69,1354.25,1510.84z"/>
	<path style="clip-path:url(#SVGID_00000114790955460098363810000001880096767703152060_);fill:#1D1837;" d="M1340.29,834.47
		c5.79,36.39-28.93,163.23-59.84,206.53c-30.91,43.32-5.73,84.75-9.01,111.09c-3.29,26.34-37.94,29.69-37.94,29.69
		c-10.84,0-7.95-71.33-26.75-86.86c-18.8-15.55-80.99-7.06-95.46-5.66c-14.46,1.42-40.61-7.05-40.61-7.05h-0.29
		c0,0-26.15,8.47-40.61,7.05c-14.47-1.41-76.65-9.89-95.46,5.66c-18.8,15.53-15.91,86.86-26.76,86.86c0,0-34.64-3.35-37.93-29.69
		c-3.28-26.33,21.9-67.77-9.01-111.09c-30.91-43.3-65.63-170.14-59.84-206.53l-22.1,54.94c0,0,9.57,249,35.6,298.22
		c26.04,49.23,199.81,159.4,256.11,162.23h0.29c56.3-2.83,230.08-112.99,256.11-162.23c26.03-49.22,34.3-291.75,34.3-291.75
		L1340.29,834.47z M1123.81,1273.49c-29.42,8.38-30.87-41.96-30.87-41.96h-22.25h-0.29h-22.26c0,0-1.44,50.34-30.87,41.96
		c-29.42-8.38-81.49-20.79-67.02-100.75c14.47-79.95,81.21-53.2,120.16-65.16h0.29c38.94,11.96,105.69-14.79,120.16,65.16
		C1205.3,1252.7,1153.24,1265.11,1123.81,1273.49z"/>
</g>
</svg>
