<?xml version="1.0" encoding="utf-8"?>
<!-- Generator: Adobe Illustrator 27.7.0, SVG Export Plug-In . SVG Version: 6.00 Build 0)  -->
<svg version="1.1" id="Capa_1" xmlns="http://www.w3.org/2000/svg" xmlns:xlink="http://www.w3.org/1999/xlink" x="0px" y="0px"
	 viewBox="0 0 2122 2122" style="enable-background:new 0 0 2122 2122;" xml:space="preserve">
<style type="text/css">
	.st0{clip-path:url(#SVGID_00000084487769527845477810000010346639991125638557_);fill:#329ED3;}
	.st1{clip-path:url(#SVGID_00000084487769527845477810000010346639991125638557_);fill:#1D1837;}
	.st2{clip-path:url(#SVGID_00000084487769527845477810000010346639991125638557_);fill:#DCE6ED;}
	.st3{clip-path:url(#SVGID_00000084487769527845477810000010346639991125638557_);fill:#C67857;}
	.st4{clip-path:url(#SVGID_00000084487769527845477810000010346639991125638557_);fill:#B26044;}
	.st5{clip-path:url(#SVGID_00000084487769527845477810000010346639991125638557_);fill:#D98D68;}
	.st6{clip-path:url(#SVGID_00000084487769527845477810000010346639991125638557_);fill:#C1714D;}
	.st7{clip-path:url(#SVGID_00000084487769527845477810000010346639991125638557_);fill:#FEF8F9;}
	.st8{clip-path:url(#SVGID_00000084487769527845477810000010346639991125638557_);fill:#AF6848;}
	.st9{clip-path:url(#SVGID_00000084487769527845477810000010346639991125638557_);fill:#AB5C3C;}
</style>
<g>
	<defs>
		<path id="SVGID_1_" d="M212.14,1060.67c0,468.62,379.89,848.51,848.51,848.51c468.62,0,848.53-379.89,848.53-848.51
			c0-468.64-379.91-848.53-848.53-848.53C592.03,212.14,212.14,592.03,212.14,1060.67"/>
	</defs>
	<clipPath id="SVGID_00000094587067316945362850000009238813696168325556_">
		<use xlink:href="#SVGID_1_"  style="overflow:visible;"/>
	</clipPath>
	
		<circle style="clip-path:url(#SVGID_00000094587067316945362850000009238813696168325556_);fill:#329ED3;" cx="1060.66" cy="1060.66" r="848.52"/>
	<path style="clip-path:url(#SVGID_00000094587067316945362850000009238813696168325556_);fill:#1D1837;" d="M653.05,901.81
		c0,0,37.11,638.66-64.1,745.7l494.43,43.36l-4.64-829L653.05,901.81z"/>
	<path style="clip-path:url(#SVGID_00000094587067316945362850000009238813696168325556_);fill:#1D1837;" d="M1479.93,911.88
		c0,0-36.1,668.54,65.11,775.58l-494.42,43.36l4.62-829.01L1479.93,911.88z"/>
	<path style="clip-path:url(#SVGID_00000094587067316945362850000009238813696168325556_);fill:#1D1837;" d="M1060.66,1548.57
		c0,0,444.78-117.66,418.91-686.7c-19.89-437.54-310-503.68-417-501.88c-304.59,5.11-624.25,326.25-226.4,1247.69L1060.66,1548.57z"
		/>
	<path style="clip-path:url(#SVGID_00000094587067316945362850000009238813696168325556_);fill:#DCE6ED;" d="M1576.51,1595.04
		c-68.55-23.77-407.69-89.11-407.69-396.68l-108.16,51.45l-108.18-51.45c0,307.57-339.12,372.91-407.69,396.68
		c-91.18,31.62-100.48,347.1-100.48,347.1h615.71h1.25h615.73C1677.01,1942.14,1667.71,1626.66,1576.51,1595.04z"/>
	<path style="clip-path:url(#SVGID_00000094587067316945362850000009238813696168325556_);fill:#C67857;" d="M804.43,1482.94
		c70.41,41.08,159.41,65.63,256.23,65.63c96.8,0,185.8-24.55,256.21-65.63c-80.72-58.62-148.05-147.54-148.05-284.58l-108.16,51.45
		l-108.18-51.45C952.48,1335.4,885.15,1424.32,804.43,1482.94z"/>
	<path style="clip-path:url(#SVGID_00000094587067316945362850000009238813696168325556_);fill:#B26044;" d="M1160.58,1202.29
		l-99.92,47.53l-99.94-47.53c-2.97,11.03-6.27,21.64-9.85,31.87c-5.84,64.22-27.26,116.84-57.56,160.06
		c48.33,33.96,105.72,53.73,167.35,53.73c61.62,0,119.02-19.77,167.35-53.73c-30.3-43.23-51.74-95.84-57.56-160.06
		C1166.87,1223.93,1163.57,1213.32,1160.58,1202.29z"/>
	<path style="clip-path:url(#SVGID_00000094587067316945362850000009238813696168325556_);fill:#C67857;" d="M783.93,866.04
		c0,0-16.02-49.86-47.1-33.16c-31.09,16.71-14.57,210.22,30.65,232.61c45.22,22.39,56.27-38.06,56.27-38.06L783.93,866.04z"/>
	<path style="clip-path:url(#SVGID_00000094587067316945362850000009238813696168325556_);fill:#C67857;" d="M1347.08,866.04
		c0,0,16.02-49.86,47.11-33.16c31.08,16.71,14.55,210.22-30.67,232.61c-45.22,22.39-56.27-38.06-56.27-38.06L1347.08,866.04z"/>
	<path style="clip-path:url(#SVGID_00000094587067316945362850000009238813696168325556_);fill:#D98D68;" d="M1362.57,855.82
		c-3.55-247.2-114.13-359.36-298.17-359.3c-184.03-0.06-294.61,112.1-298.17,359.3c-3.55,247.21,149.06,408.18,249.65,458.96
		c18.67,9.42,48.52,12.45,48.52,12.45s29.83-3.03,48.5-12.45C1213.51,1264,1366.12,1103.03,1362.57,855.82z"/>
	<path style="clip-path:url(#SVGID_00000094587067316945362850000009238813696168325556_);fill:#C1714D;" d="M1166.14,1120.28
		l-101.74,24.91l-101.74-24.91c0,0,17.19,78.09,101.74,78.09C1148.94,1198.36,1166.14,1120.28,1166.14,1120.28z"/>
	<path style="clip-path:url(#SVGID_00000094587067316945362850000009238813696168325556_);fill:#FEF8F9;" d="M1064.4,1125.61
		l-100.32-3.8c0,0,39.89,41.58,100.32,42.55c60.44-0.97,100.31-42.55,100.31-42.55L1064.4,1125.61z"/>
	<path style="clip-path:url(#SVGID_00000094587067316945362850000009238813696168325556_);fill:#1D1837;" d="M1134.04,807.82
		c0,0,6.3,18.9,31.51,14.7c25.19-4.2,92.4-28.18,132.3,0.61C1297.84,823.13,1255.82,753.22,1134.04,807.82z"/>
	<path style="clip-path:url(#SVGID_00000094587067316945362850000009238813696168325556_);fill:#FEF8F9;" d="M1267.42,887.49
		L1267.42,887.49c-8.49-14.91-31.76-25.62-59.23-25.62c-27.48,0-50.76,10.71-59.25,25.61v0.01c8.49,14.89,31.77,25.6,59.25,25.6
		C1235.67,913.09,1258.93,902.38,1267.42,887.49z"/>
	<path style="clip-path:url(#SVGID_00000094587067316945362850000009238813696168325556_);fill:#1D1837;" d="M1148.94,887.49"/>
	<path style="clip-path:url(#SVGID_00000094587067316945362850000009238813696168325556_);fill:#1D1837;" d="M1258.76,861.88
		c-20.47-8.67-81.05-30.67-109.82,25.6c8.49-14.89,31.77-25.6,59.25-25.6c27.48,0,50.74,10.71,59.23,25.61
		c0,0,19.68-1.99,25.21-25.61C1292.63,861.88,1279.23,870.53,1258.76,861.88z"/>
	<path style="clip-path:url(#SVGID_00000094587067316945362850000009238813696168325556_);fill:#1D1837;" d="M1187.53,864
		c-6.63,5.68-10.84,14.08-10.84,23.48c0,9.4,4.21,17.81,10.84,23.48c6.47,1.37,13.42,2.13,20.66,2.13c6.66,0,13.07-0.64,19.08-1.81
		c6.85-5.67,11.21-14.22,11.21-23.8c0-9.58-4.36-18.14-11.21-23.8c-6.01-1.17-12.42-1.81-19.08-1.81
		C1200.94,861.88,1194,862.63,1187.53,864z"/>
	<path style="clip-path:url(#SVGID_00000094587067316945362850000009238813696168325556_);fill:#1D1837;" d="M996.77,807.82
		c0,0-6.3,18.9-31.51,14.7c-25.21-4.2-92.4-28.18-132.3,0.61C829.72,828.54,862.89,747.81,996.77,807.82z"/>
	<path style="clip-path:url(#SVGID_00000094587067316945362850000009238813696168325556_);fill:#FEF8F9;" d="M861.36,887.49
		L861.36,887.49c8.49-14.91,31.77-25.62,59.25-25.62c27.48,0,50.74,10.71,59.23,25.61h0.02l-0.02,0.01h0.02h-0.02
		c-8.49,14.89-31.76,25.6-59.23,25.6C893.13,913.09,869.85,902.38,861.36,887.49z"/>
	<path style="clip-path:url(#SVGID_00000094587067316945362850000009238813696168325556_);fill:#1D1837;" d="M979.85,887.49h0.02
		H979.85z"/>
	<path style="clip-path:url(#SVGID_00000094587067316945362850000009238813696168325556_);fill:#1D1837;" d="M870.03,861.88
		c20.47-8.67,81.05-30.67,109.82,25.6c-8.49-14.89-31.76-25.6-59.23-25.6c-27.48,0-50.76,10.71-59.25,25.61
		c0,0-19.68-1.99-25.19-25.61C836.17,861.88,849.56,870.53,870.03,861.88z"/>
	<path style="clip-path:url(#SVGID_00000094587067316945362850000009238813696168325556_);fill:#1D1837;" d="M941.27,864
		c6.63,5.68,10.85,14.08,10.85,23.48c0,9.4-4.22,17.81-10.85,23.48c-6.47,1.37-13.41,2.13-20.66,2.13c-6.66,0-13.07-0.64-19.1-1.81
		c-6.83-5.67-11.19-14.22-11.19-23.8c0-9.58,4.36-18.14,11.19-23.8c6.03-1.17,12.44-1.81,19.1-1.81
		C927.86,861.88,934.8,862.63,941.27,864z"/>
	<path style="clip-path:url(#SVGID_00000094587067316945362850000009238813696168325556_);fill:#AF6848;" d="M1069.96,1063.84
		c0,0,22.57-34.62,44.84-12.47c0,0,0.3,9.92-19.87,8.15C1094.93,1059.52,1086.12,1055.61,1069.96,1063.84z"/>
	<path style="clip-path:url(#SVGID_00000094587067316945362850000009238813696168325556_);fill:#AF6848;" d="M1059.55,1063.53
		c0,0-24.4-35.96-45.55-15.05c0,0,0.22,9.91,20.33,9.3C1034.33,1057.77,1042.94,1054.37,1059.55,1063.53z"/>
	<path style="clip-path:url(#SVGID_00000094587067316945362850000009238813696168325556_);fill:#AB5C3C;" d="M1074.77,1105
		c0,0-4.2,1.85-10.37,2.1c-6.17-0.26-10.38-2.1-10.38-2.1c-25.65-3.83-95.3,16.09-95.3,16.09c39.03,11.4,74.8,15.75,105.68,16.32
		c30.89-0.57,66.66-4.92,105.69-16.32C1170.09,1121.08,1100.43,1101.16,1074.77,1105z"/>
	<path style="clip-path:url(#SVGID_00000094587067316945362850000009238813696168325556_);fill:#1D1837;" d="M1064.4,496.52
		c0,0-13.7,64.69-67.63,90.56c-53.95,25.88-148.84,93.92-230.6,299.18c0,0-25.9-99.42-25.9-136.79
		C740.27,712.1,742.65,362.76,1064.4,496.52z"/>
	<path style="clip-path:url(#SVGID_00000094587067316945362850000009238813696168325556_);fill:#1D1837;" d="M1064.4,496.52
		c0,0,6.2,52.15,40.79,77.62c168.16,123.85,258.61,273.83,257.43,327.67c0,0,33.04-146.07,15.79-219.63
		C1361.15,608.62,1196.83,474.86,1064.4,496.52z"/>
</g>
</svg>
